<svg id="Layer_1" data-name="Layer 1" xmlns="http://www.w3.org/2000/svg" viewBox="0 0 500 500"><defs><style>.cls-1{fill:#090951;}</style></defs><circle class="cls-1" cx="250.36" cy="98.27" r="12.38"/><path class="cls-1" d="M381.71,184.74a12.38,12.38,0,1,0-12.1-12.38A12.24,12.24,0,0,0,381.71,184.74Z"/><circle class="cls-1" cx="119.53" cy="172.36" r="12.38"/><circle class="cls-1" cx="250.41" cy="402" r="12.38"/><circle class="cls-1" cx="381.99" cy="326.42" r="12.38"/><circle class="cls-1" cx="117.38" cy="326.42" r="12.38"/><path class="cls-1" d="M250.36,129a30.49,30.49,0,0,1-5.09-.46L227.15,160h43.32l-17.93-31C251.82,129,251.1,129,250.36,129Z"/><path class="cls-1" d="M444.54,137.64,249.68,25.14,54.83,137.64v225l194.86,112.5,194.85-112.5ZM377.59,296a30.37,30.37,0,0,1,4.4-.35,30.76,30.76,0,1,1-25.43,13.44L284.77,184.74h-22V373.85a30.77,30.77,0,1,1-24.76,0V184.74H212.85l-71,123a30.75,30.75,0,1,1-24.44-12.12c.94,0,1.85.06,2.77.14l64.11-111H147.68a30.77,30.77,0,1,1,0-24.76h50.88l26-45a30.77,30.77,0,1,1,49.92,2.4L299.06,160h54.77a30.77,30.77,0,1,1,0,24.76H313.36Z"/></svg>